<svg width="16" height="16" viewBox="0 0 16 16" fill="none" xmlns="http://www.w3.org/2000/svg">
<rect width="16" height="16" rx="8" fill="#040E30"/>
<path d="M4.79167 2.16602C5.38628 2.16602 5.87531 2.45457 6.25875 3.03168C6.64181 3.6084 6.83333 4.29207 6.83333 5.08268C6.83333 5.53379 6.76781 5.98957 6.63675 6.45002C6.50531 6.91085 6.36725 7.3046 6.22258 7.63127L3.67167 8.25018C3.39128 7.79635 3.16767 7.3116 3.00083 6.79593C2.834 6.28027 2.75039 5.70918 2.75 5.08268C2.75 4.24579 2.94367 3.55046 3.331 2.99668C3.71833 2.4429 4.20522 2.16602 4.79167 2.16602ZM5.59375 10.916C5.08314 10.916 4.67675 10.7148 4.37458 10.3123C4.07319 9.90938 3.92056 9.39935 3.91667 8.78218L6.3445 8.20352C6.45961 8.39874 6.56986 8.61399 6.67525 8.84927C6.78064 9.08454 6.83333 9.32138 6.83333 9.55977C6.83333 9.94943 6.71686 10.273 6.48392 10.5304C6.25097 10.7879 5.95425 10.9164 5.59375 10.916ZM11.2083 5.08268C11.7948 5.08268 12.2817 5.35957 12.669 5.91335C13.0563 6.46713 13.25 7.16246 13.25 7.99935C13.25 8.64763 13.1592 9.23349 12.9776 9.75693C12.796 10.2804 12.5574 10.7801 12.2618 11.2561L9.75467 10.5036C9.61778 10.1765 9.48556 9.78824 9.358 9.33868C9.23044 8.88952 9.16667 8.44307 9.16667 7.99935C9.16667 7.20874 9.35839 6.52507 9.74183 5.94835C10.1245 5.37124 10.6133 5.08268 11.2083 5.08268ZM10.4062 13.8327C10.0457 13.8327 9.74903 13.704 9.51608 13.4465C9.28314 13.1891 9.16667 12.8659 9.16667 12.477C9.16667 12.2308 9.22306 11.9864 9.33583 11.7438C9.44861 11.5011 9.56275 11.2785 9.67825 11.0758L12.0798 11.812C12.0612 12.3837 11.9015 12.8636 11.6009 13.2517C11.3003 13.639 10.9021 13.8327 10.4062 13.8327Z" fill="white"/>
</svg>
