<svg width="16" height="16" viewBox="0 0 16 16" fill="none" xmlns="http://www.w3.org/2000/svg">
<g clip-path="url(#clip0_806_1688)">
<rect width="16" height="16" rx="8" fill="#FCF5EA"/>
<path d="M4.99775 14.064C4.63508 14.064 4.30975 13.9307 4.02175 13.664C3.73375 13.3867 3.58975 12.9227 3.58975 12.272C3.58975 11.8453 3.64842 11.3707 3.76575 10.848C3.89375 10.3253 4.04308 9.78667 4.21375 9.232C4.39508 8.66667 4.57642 8.12267 4.75775 7.6C4.93908 7.07733 5.08842 6.60267 5.20575 6.176C5.32308 5.74933 5.38175 5.41333 5.38175 5.168C5.38175 4.88 5.26975 4.736 5.04575 4.736C4.77908 4.736 4.52842 4.89067 4.29375 5.2C4.05908 5.49867 3.79775 5.92 3.50975 6.464L3.41375 6.432C3.41375 5.58933 3.63775 4.85867 4.08575 4.24C4.53375 3.61067 5.13642 3.12533 5.89375 2.784C6.66175 2.44267 7.51508 2.272 8.45375 2.272C9.40308 2.272 10.1711 2.43733 10.7578 2.768C11.3551 3.088 11.7924 3.50933 12.0698 4.032C12.3578 4.544 12.5017 5.09333 12.5017 5.68C12.5017 6.18133 12.4058 6.68267 12.2138 7.184C12.0324 7.67467 11.7658 8.12267 11.4138 8.528C11.0724 8.93333 10.6671 9.25867 10.1978 9.504C9.72842 9.74933 9.21108 9.872 8.64575 9.872C8.05908 9.872 7.45108 9.72267 6.82175 9.424C6.68308 9.94667 6.56042 10.48 6.45375 11.024C6.34708 11.5573 6.29375 12.1067 6.29375 12.672C6.29375 12.9493 6.30975 13.2267 6.34175 13.504C6.16042 13.6853 5.94708 13.824 5.70175 13.92C5.46708 14.016 5.23242 14.064 4.99775 14.064ZM7.55775 8.272C7.98442 8.272 8.35775 8.15467 8.67775 7.92C8.99775 7.67467 9.24308 7.37067 9.41375 7.008C9.59508 6.63467 9.68575 6.26133 9.68575 5.888C9.68575 5.45067 9.54175 5.06133 9.25375 4.72C8.97642 4.37867 8.51775 4.208 7.87775 4.208C7.79242 4.208 7.69108 4.21333 7.57375 4.224C7.46708 4.23467 7.35508 4.25067 7.23775 4.272C7.32308 4.53867 7.37642 4.80533 7.39775 5.072C7.42975 5.328 7.44575 5.57867 7.44575 5.824C7.44575 6.25067 7.41375 6.66133 7.34975 7.056C7.28575 7.45067 7.21108 7.84 7.12575 8.224C7.27508 8.256 7.41908 8.272 7.55775 8.272Z" fill="#3D211A"/>
</g>
<defs>
<clipPath id="clip0_806_1688">
<rect width="16" height="16" rx="8" fill="white"/>
</clipPath>
</defs>
</svg>
